<mxfile host="app.diagrams.net" agent="Mozilla/5.0 (Windows NT 10.0; Win64; x64) AppleWebKit/537.36 (KHTML, like Gecko) Chrome/135.0.0.0 Safari/537.36" version="26.2.5">
  <diagram id="C5RBs43oDa-KdzZeNtuy" name="Page-1">
    <mxGraphModel dx="4732" dy="1289" grid="1" gridSize="10" guides="1" tooltips="1" connect="1" arrows="1" fold="1" page="1" pageScale="1" pageWidth="827" pageHeight="1169" math="0" shadow="0">
      <root>
        <mxCell id="WIyWlLk6GJQsqaUBKTNV-0" />
        <mxCell id="WIyWlLk6GJQsqaUBKTNV-1" parent="WIyWlLk6GJQsqaUBKTNV-0" />
        <mxCell id="n06JC92JtDvAnd-jPqie-0" value="c" style="outlineConnect=0;dashed=0;verticalLabelPosition=bottom;verticalAlign=top;align=center;html=1;shape=mxgraph.aws3.queue;fillColor=#D9A741;gradientColor=none;" parent="WIyWlLk6GJQsqaUBKTNV-1" vertex="1">
          <mxGeometry x="210" y="299" width="73.5" height="48" as="geometry" />
        </mxCell>
        <mxCell id="n06JC92JtDvAnd-jPqie-1" value="" style="outlineConnect=0;dashed=0;verticalLabelPosition=bottom;verticalAlign=top;align=center;html=1;shape=mxgraph.aws3.queue;fillColor=#D9A741;gradientColor=none;" parent="WIyWlLk6GJQsqaUBKTNV-1" vertex="1">
          <mxGeometry x="320" y="299" width="73.5" height="48" as="geometry" />
        </mxCell>
        <mxCell id="n06JC92JtDvAnd-jPqie-2" value="" style="outlineConnect=0;dashed=0;verticalLabelPosition=bottom;verticalAlign=top;align=center;html=1;shape=mxgraph.aws3.queue;fillColor=#D9A741;gradientColor=none;" parent="WIyWlLk6GJQsqaUBKTNV-1" vertex="1">
          <mxGeometry x="430" y="299" width="73.5" height="48" as="geometry" />
        </mxCell>
        <mxCell id="n06JC92JtDvAnd-jPqie-3" value="iFlow" style="ellipse;whiteSpace=wrap;html=1;" parent="WIyWlLk6GJQsqaUBKTNV-1" vertex="1">
          <mxGeometry x="406.75" y="540" width="120" height="80" as="geometry" />
        </mxCell>
        <mxCell id="n06JC92JtDvAnd-jPqie-5" value="" style="endArrow=classic;html=1;rounded=0;" parent="WIyWlLk6GJQsqaUBKTNV-1" source="n06JC92JtDvAnd-jPqie-0" target="n06JC92JtDvAnd-jPqie-8" edge="1">
          <mxGeometry width="50" height="50" relative="1" as="geometry">
            <mxPoint x="360" y="510" as="sourcePoint" />
            <mxPoint x="440" y="570" as="targetPoint" />
          </mxGeometry>
        </mxCell>
        <mxCell id="n06JC92JtDvAnd-jPqie-6" value="" style="endArrow=classic;html=1;rounded=0;" parent="WIyWlLk6GJQsqaUBKTNV-1" source="n06JC92JtDvAnd-jPqie-2" target="n06JC92JtDvAnd-jPqie-3" edge="1">
          <mxGeometry width="50" height="50" relative="1" as="geometry">
            <mxPoint x="430" y="490" as="sourcePoint" />
            <mxPoint x="691" y="567" as="targetPoint" />
          </mxGeometry>
        </mxCell>
        <mxCell id="n06JC92JtDvAnd-jPqie-7" value="iFlow" style="ellipse;whiteSpace=wrap;html=1;" parent="WIyWlLk6GJQsqaUBKTNV-1" vertex="1">
          <mxGeometry x="296.75" y="540" width="120" height="80" as="geometry" />
        </mxCell>
        <mxCell id="n06JC92JtDvAnd-jPqie-8" value="iFlow" style="ellipse;whiteSpace=wrap;html=1;" parent="WIyWlLk6GJQsqaUBKTNV-1" vertex="1">
          <mxGeometry x="186.75" y="540" width="120" height="80" as="geometry" />
        </mxCell>
        <mxCell id="n06JC92JtDvAnd-jPqie-10" value="" style="endArrow=classic;html=1;rounded=0;" parent="WIyWlLk6GJQsqaUBKTNV-1" source="n06JC92JtDvAnd-jPqie-1" target="n06JC92JtDvAnd-jPqie-7" edge="1">
          <mxGeometry width="50" height="50" relative="1" as="geometry">
            <mxPoint x="360" y="510" as="sourcePoint" />
            <mxPoint x="410" y="460" as="targetPoint" />
          </mxGeometry>
        </mxCell>
        <mxCell id="n06JC92JtDvAnd-jPqie-12" value="" style="endArrow=none;html=1;rounded=0;" parent="WIyWlLk6GJQsqaUBKTNV-1" edge="1">
          <mxGeometry width="50" height="50" relative="1" as="geometry">
            <mxPoint x="150" y="397" as="sourcePoint" />
            <mxPoint x="540" y="397" as="targetPoint" />
          </mxGeometry>
        </mxCell>
        <mxCell id="n06JC92JtDvAnd-jPqie-14" value="" style="swimlane;startSize=0;" parent="WIyWlLk6GJQsqaUBKTNV-1" vertex="1">
          <mxGeometry x="120" y="223" width="500" height="200" as="geometry" />
        </mxCell>
        <mxCell id="n06JC92JtDvAnd-jPqie-15" value="&lt;font style=&quot;font-size: 24px;&quot;&gt;Azure Queues Test&lt;/font&gt;&lt;div&gt;&lt;font style=&quot;font-size: 24px;&quot;&gt;Datahub 2.0?&lt;/font&gt;&lt;/div&gt;" style="text;html=1;align=center;verticalAlign=middle;resizable=0;points=[];autosize=1;strokeColor=none;fillColor=none;" parent="n06JC92JtDvAnd-jPqie-14" vertex="1">
          <mxGeometry x="135" width="230" height="70" as="geometry" />
        </mxCell>
        <mxCell id="n06JC92JtDvAnd-jPqie-17" value="" style="sketch=0;aspect=fixed;pointerEvents=1;shadow=0;dashed=0;html=1;strokeColor=none;labelPosition=center;verticalLabelPosition=bottom;verticalAlign=top;align=center;fillColor=#00188D;shape=mxgraph.azure.queue_generic" parent="WIyWlLk6GJQsqaUBKTNV-1" vertex="1">
          <mxGeometry x="296.75" y="670" width="200" height="60" as="geometry" />
        </mxCell>
        <mxCell id="n06JC92JtDvAnd-jPqie-18" value="" style="endArrow=classic;html=1;rounded=0;exitX=0.5;exitY=1;exitDx=0;exitDy=0;entryX=0.5;entryY=0;entryDx=0;entryDy=0;entryPerimeter=0;" parent="WIyWlLk6GJQsqaUBKTNV-1" source="n06JC92JtDvAnd-jPqie-7" target="n06JC92JtDvAnd-jPqie-17" edge="1">
          <mxGeometry width="50" height="50" relative="1" as="geometry">
            <mxPoint x="376.75" y="630" as="sourcePoint" />
            <mxPoint x="370" y="660" as="targetPoint" />
          </mxGeometry>
        </mxCell>
        <mxCell id="n06JC92JtDvAnd-jPqie-19" value="" style="endArrow=classic;html=1;rounded=0;exitX=0.5;exitY=1;exitDx=0;exitDy=0;entryX=0.271;entryY=0.111;entryDx=0;entryDy=0;entryPerimeter=0;" parent="WIyWlLk6GJQsqaUBKTNV-1" source="n06JC92JtDvAnd-jPqie-8" target="n06JC92JtDvAnd-jPqie-17" edge="1">
          <mxGeometry width="50" height="50" relative="1" as="geometry">
            <mxPoint x="360" y="570" as="sourcePoint" />
            <mxPoint x="410" y="520" as="targetPoint" />
          </mxGeometry>
        </mxCell>
        <mxCell id="n06JC92JtDvAnd-jPqie-20" value="" style="endArrow=classic;html=1;rounded=0;exitX=0.5;exitY=1;exitDx=0;exitDy=0;entryX=0.5;entryY=0;entryDx=0;entryDy=0;entryPerimeter=0;" parent="WIyWlLk6GJQsqaUBKTNV-1" source="n06JC92JtDvAnd-jPqie-3" target="n06JC92JtDvAnd-jPqie-17" edge="1">
          <mxGeometry width="50" height="50" relative="1" as="geometry">
            <mxPoint x="470" y="640" as="sourcePoint" />
            <mxPoint x="440" y="660" as="targetPoint" />
          </mxGeometry>
        </mxCell>
        <mxCell id="n06JC92JtDvAnd-jPqie-21" value="JMS QUEUE" style="text;html=1;align=center;verticalAlign=middle;whiteSpace=wrap;rounded=0;" parent="WIyWlLk6GJQsqaUBKTNV-1" vertex="1">
          <mxGeometry x="223.5" y="685" width="60" height="30" as="geometry" />
        </mxCell>
        <mxCell id="n06JC92JtDvAnd-jPqie-22" value="Handler service" style="ellipse;whiteSpace=wrap;html=1;" parent="WIyWlLk6GJQsqaUBKTNV-1" vertex="1">
          <mxGeometry x="330" y="770" width="120" height="80" as="geometry" />
        </mxCell>
        <mxCell id="n06JC92JtDvAnd-jPqie-24" value="" style="endArrow=classic;html=1;rounded=0;exitX=0.411;exitY=0.971;exitDx=0;exitDy=0;exitPerimeter=0;" parent="WIyWlLk6GJQsqaUBKTNV-1" source="n06JC92JtDvAnd-jPqie-22" edge="1">
          <mxGeometry width="50" height="50" relative="1" as="geometry">
            <mxPoint x="360" y="800" as="sourcePoint" />
            <mxPoint x="320" y="920" as="targetPoint" />
          </mxGeometry>
        </mxCell>
        <mxCell id="n06JC92JtDvAnd-jPqie-25" value="" style="endArrow=classic;html=1;rounded=0;exitX=0.722;exitY=0.988;exitDx=0;exitDy=0;exitPerimeter=0;" parent="WIyWlLk6GJQsqaUBKTNV-1" source="n06JC92JtDvAnd-jPqie-22" edge="1">
          <mxGeometry width="50" height="50" relative="1" as="geometry">
            <mxPoint x="470" y="970" as="sourcePoint" />
            <mxPoint x="450" y="940" as="targetPoint" />
          </mxGeometry>
        </mxCell>
        <mxCell id="n06JC92JtDvAnd-jPqie-26" value="" style="endArrow=classic;startArrow=classic;html=1;rounded=0;exitX=0.5;exitY=1;exitDx=0;exitDy=0;exitPerimeter=0;entryX=0.5;entryY=0;entryDx=0;entryDy=0;" parent="WIyWlLk6GJQsqaUBKTNV-1" source="n06JC92JtDvAnd-jPqie-17" target="n06JC92JtDvAnd-jPqie-22" edge="1">
          <mxGeometry width="50" height="50" relative="1" as="geometry">
            <mxPoint x="360" y="800" as="sourcePoint" />
            <mxPoint x="410" y="750" as="targetPoint" />
          </mxGeometry>
        </mxCell>
        <mxCell id="n06JC92JtDvAnd-jPqie-28" value="" style="endArrow=classic;html=1;rounded=0;exitX=0.5;exitY=1;exitDx=0;exitDy=0;" parent="WIyWlLk6GJQsqaUBKTNV-1" source="n06JC92JtDvAnd-jPqie-22" edge="1">
          <mxGeometry width="50" height="50" relative="1" as="geometry">
            <mxPoint x="390" y="850" as="sourcePoint" />
            <mxPoint x="390" y="980" as="targetPoint" />
          </mxGeometry>
        </mxCell>
        <mxCell id="n06JC92JtDvAnd-jPqie-29" value="Read" style="text;html=1;align=center;verticalAlign=middle;whiteSpace=wrap;rounded=0;" parent="WIyWlLk6GJQsqaUBKTNV-1" vertex="1">
          <mxGeometry x="250" y="630" width="240" height="30" as="geometry" />
        </mxCell>
        <mxCell id="n06JC92JtDvAnd-jPqie-30" value="Read" style="text;html=1;align=center;verticalAlign=middle;whiteSpace=wrap;rounded=0;" parent="WIyWlLk6GJQsqaUBKTNV-1" vertex="1">
          <mxGeometry x="263.5" y="740" width="240" height="30" as="geometry" />
        </mxCell>
        <mxCell id="n06JC92JtDvAnd-jPqie-31" value="Process Direct" style="text;html=1;align=center;verticalAlign=middle;whiteSpace=wrap;rounded=0;" parent="WIyWlLk6GJQsqaUBKTNV-1" vertex="1">
          <mxGeometry x="276.75" y="875" width="240" height="30" as="geometry" />
        </mxCell>
        <mxCell id="n06JC92JtDvAnd-jPqie-32" value="" style="ellipse;whiteSpace=wrap;html=1;" parent="WIyWlLk6GJQsqaUBKTNV-1" vertex="1">
          <mxGeometry x="234" y="960" width="120" height="80" as="geometry" />
        </mxCell>
        <mxCell id="n06JC92JtDvAnd-jPqie-33" value="" style="ellipse;whiteSpace=wrap;html=1;" parent="WIyWlLk6GJQsqaUBKTNV-1" vertex="1">
          <mxGeometry x="439" y="920" width="120" height="80" as="geometry" />
        </mxCell>
        <mxCell id="n06JC92JtDvAnd-jPqie-34" value="" style="ellipse;whiteSpace=wrap;html=1;" parent="WIyWlLk6GJQsqaUBKTNV-1" vertex="1">
          <mxGeometry x="396.75" y="940" width="120" height="80" as="geometry" />
        </mxCell>
        <mxCell id="n06JC92JtDvAnd-jPqie-35" value="" style="ellipse;whiteSpace=wrap;html=1;" parent="WIyWlLk6GJQsqaUBKTNV-1" vertex="1">
          <mxGeometry x="310" y="940" width="120" height="80" as="geometry" />
        </mxCell>
        <mxCell id="n06JC92JtDvAnd-jPqie-36" value="" style="ellipse;whiteSpace=wrap;html=1;" parent="WIyWlLk6GJQsqaUBKTNV-1" vertex="1">
          <mxGeometry x="234" y="920" width="120" height="80" as="geometry" />
        </mxCell>
        <mxCell id="n06JC92JtDvAnd-jPqie-37" value="" style="ellipse;whiteSpace=wrap;html=1;" parent="WIyWlLk6GJQsqaUBKTNV-1" vertex="1">
          <mxGeometry x="310" y="980" width="120" height="80" as="geometry" />
        </mxCell>
        <mxCell id="n06JC92JtDvAnd-jPqie-38" value="" style="ellipse;whiteSpace=wrap;html=1;" parent="WIyWlLk6GJQsqaUBKTNV-1" vertex="1">
          <mxGeometry x="406.75" y="990" width="120" height="80" as="geometry" />
        </mxCell>
        <mxCell id="n06JC92JtDvAnd-jPqie-39" value="" style="ellipse;whiteSpace=wrap;html=1;" parent="WIyWlLk6GJQsqaUBKTNV-1" vertex="1">
          <mxGeometry x="460" y="970" width="120" height="80" as="geometry" />
        </mxCell>
        <mxCell id="n06JC92JtDvAnd-jPqie-40" value="" style="endArrow=classic;html=1;rounded=0;" parent="WIyWlLk6GJQsqaUBKTNV-1" source="n06JC92JtDvAnd-jPqie-38" edge="1">
          <mxGeometry width="50" height="50" relative="1" as="geometry">
            <mxPoint x="450" y="1140" as="sourcePoint" />
            <mxPoint x="430" y="1160" as="targetPoint" />
          </mxGeometry>
        </mxCell>
        <mxCell id="n06JC92JtDvAnd-jPqie-41" value="" style="endArrow=classic;html=1;rounded=0;" parent="WIyWlLk6GJQsqaUBKTNV-1" source="n06JC92JtDvAnd-jPqie-37" edge="1">
          <mxGeometry width="50" height="50" relative="1" as="geometry">
            <mxPoint x="370" y="1110" as="sourcePoint" />
            <mxPoint x="410" y="1170" as="targetPoint" />
          </mxGeometry>
        </mxCell>
        <mxCell id="n06JC92JtDvAnd-jPqie-42" value="" style="endArrow=classic;html=1;rounded=0;exitX=0.361;exitY=1.004;exitDx=0;exitDy=0;exitPerimeter=0;" parent="WIyWlLk6GJQsqaUBKTNV-1" source="n06JC92JtDvAnd-jPqie-32" edge="1">
          <mxGeometry width="50" height="50" relative="1" as="geometry">
            <mxPoint x="280" y="1050" as="sourcePoint" />
            <mxPoint x="270" y="1150" as="targetPoint" />
          </mxGeometry>
        </mxCell>
        <mxCell id="n06JC92JtDvAnd-jPqie-43" value="" style="endArrow=classic;html=1;rounded=0;exitX=0.378;exitY=0.979;exitDx=0;exitDy=0;exitPerimeter=0;" parent="WIyWlLk6GJQsqaUBKTNV-1" source="n06JC92JtDvAnd-jPqie-37" edge="1">
          <mxGeometry width="50" height="50" relative="1" as="geometry">
            <mxPoint x="370" y="1110" as="sourcePoint" />
            <mxPoint x="350" y="1140" as="targetPoint" />
          </mxGeometry>
        </mxCell>
        <mxCell id="n06JC92JtDvAnd-jPqie-44" value="" style="endArrow=classic;html=1;rounded=0;exitX=0.66;exitY=0.946;exitDx=0;exitDy=0;exitPerimeter=0;" parent="WIyWlLk6GJQsqaUBKTNV-1" source="n06JC92JtDvAnd-jPqie-38" target="n06JC92JtDvAnd-jPqie-45" edge="1">
          <mxGeometry width="50" height="50" relative="1" as="geometry">
            <mxPoint x="370" y="1110" as="sourcePoint" />
            <mxPoint x="470" y="1170" as="targetPoint" />
          </mxGeometry>
        </mxCell>
        <mxCell id="n06JC92JtDvAnd-jPqie-45" value="" style="swimlane;startSize=0;" parent="WIyWlLk6GJQsqaUBKTNV-1" vertex="1">
          <mxGeometry x="260" y="1120" width="200" height="200" as="geometry" />
        </mxCell>
        <mxCell id="n06JC92JtDvAnd-jPqie-47" value="&lt;font style=&quot;font-size: 36px;&quot;&gt;SAP QS4&lt;br&gt;Client: 200&lt;/font&gt;" style="text;html=1;align=center;verticalAlign=middle;resizable=0;points=[];autosize=1;strokeColor=none;fillColor=none;" parent="n06JC92JtDvAnd-jPqie-45" vertex="1">
          <mxGeometry y="70" width="200" height="100" as="geometry" />
        </mxCell>
        <mxCell id="g54i5lLIACG8u-Ve7HpA-40" value="" style="swimlane;startSize=0;" vertex="1" parent="WIyWlLk6GJQsqaUBKTNV-1">
          <mxGeometry x="120" y="450" width="500" height="640" as="geometry" />
        </mxCell>
        <mxCell id="g54i5lLIACG8u-Ve7HpA-41" value="&lt;font style=&quot;font-size: 24px;&quot;&gt;SCI QA&lt;/font&gt;" style="text;html=1;align=center;verticalAlign=middle;whiteSpace=wrap;rounded=0;" vertex="1" parent="g54i5lLIACG8u-Ve7HpA-40">
          <mxGeometry x="30" y="20" width="60" height="30" as="geometry" />
        </mxCell>
        <mxCell id="g54i5lLIACG8u-Ve7HpA-84" value="c" style="outlineConnect=0;dashed=0;verticalLabelPosition=bottom;verticalAlign=top;align=center;html=1;shape=mxgraph.aws3.queue;fillColor=#D9A741;gradientColor=none;" vertex="1" parent="WIyWlLk6GJQsqaUBKTNV-1">
          <mxGeometry x="-1610" y="269" width="73.5" height="48" as="geometry" />
        </mxCell>
        <mxCell id="g54i5lLIACG8u-Ve7HpA-85" value="" style="outlineConnect=0;dashed=0;verticalLabelPosition=bottom;verticalAlign=top;align=center;html=1;shape=mxgraph.aws3.queue;fillColor=#D9A741;gradientColor=none;" vertex="1" parent="WIyWlLk6GJQsqaUBKTNV-1">
          <mxGeometry x="-1500" y="269" width="73.5" height="48" as="geometry" />
        </mxCell>
        <mxCell id="g54i5lLIACG8u-Ve7HpA-86" value="" style="outlineConnect=0;dashed=0;verticalLabelPosition=bottom;verticalAlign=top;align=center;html=1;shape=mxgraph.aws3.queue;fillColor=#D9A741;gradientColor=none;" vertex="1" parent="WIyWlLk6GJQsqaUBKTNV-1">
          <mxGeometry x="-1390" y="269" width="73.5" height="48" as="geometry" />
        </mxCell>
        <mxCell id="g54i5lLIACG8u-Ve7HpA-87" value="iFlow" style="ellipse;whiteSpace=wrap;html=1;" vertex="1" parent="WIyWlLk6GJQsqaUBKTNV-1">
          <mxGeometry x="-1413.25" y="510" width="120" height="80" as="geometry" />
        </mxCell>
        <mxCell id="g54i5lLIACG8u-Ve7HpA-88" value="" style="endArrow=classic;html=1;rounded=0;" edge="1" parent="WIyWlLk6GJQsqaUBKTNV-1" source="g54i5lLIACG8u-Ve7HpA-84" target="g54i5lLIACG8u-Ve7HpA-91">
          <mxGeometry width="50" height="50" relative="1" as="geometry">
            <mxPoint x="-1460" y="480" as="sourcePoint" />
            <mxPoint x="-1380" y="540" as="targetPoint" />
          </mxGeometry>
        </mxCell>
        <mxCell id="g54i5lLIACG8u-Ve7HpA-89" value="" style="endArrow=classic;html=1;rounded=0;" edge="1" parent="WIyWlLk6GJQsqaUBKTNV-1" source="g54i5lLIACG8u-Ve7HpA-86" target="g54i5lLIACG8u-Ve7HpA-87">
          <mxGeometry width="50" height="50" relative="1" as="geometry">
            <mxPoint x="-1390" y="460" as="sourcePoint" />
            <mxPoint x="-1129" y="537" as="targetPoint" />
          </mxGeometry>
        </mxCell>
        <mxCell id="g54i5lLIACG8u-Ve7HpA-90" value="iFlow" style="ellipse;whiteSpace=wrap;html=1;" vertex="1" parent="WIyWlLk6GJQsqaUBKTNV-1">
          <mxGeometry x="-1523.25" y="510" width="120" height="80" as="geometry" />
        </mxCell>
        <mxCell id="g54i5lLIACG8u-Ve7HpA-91" value="iFlow" style="ellipse;whiteSpace=wrap;html=1;" vertex="1" parent="WIyWlLk6GJQsqaUBKTNV-1">
          <mxGeometry x="-1633.25" y="510" width="120" height="80" as="geometry" />
        </mxCell>
        <mxCell id="g54i5lLIACG8u-Ve7HpA-92" value="" style="endArrow=classic;html=1;rounded=0;" edge="1" parent="WIyWlLk6GJQsqaUBKTNV-1" source="g54i5lLIACG8u-Ve7HpA-85" target="g54i5lLIACG8u-Ve7HpA-90">
          <mxGeometry width="50" height="50" relative="1" as="geometry">
            <mxPoint x="-1460" y="480" as="sourcePoint" />
            <mxPoint x="-1410" y="430" as="targetPoint" />
          </mxGeometry>
        </mxCell>
        <mxCell id="g54i5lLIACG8u-Ve7HpA-93" value="" style="endArrow=none;html=1;rounded=0;" edge="1" parent="WIyWlLk6GJQsqaUBKTNV-1">
          <mxGeometry width="50" height="50" relative="1" as="geometry">
            <mxPoint x="-1670" y="367" as="sourcePoint" />
            <mxPoint x="-1280" y="367" as="targetPoint" />
          </mxGeometry>
        </mxCell>
        <mxCell id="g54i5lLIACG8u-Ve7HpA-94" value="" style="swimlane;startSize=0;" vertex="1" parent="WIyWlLk6GJQsqaUBKTNV-1">
          <mxGeometry x="-1700" y="193" width="570" height="200" as="geometry" />
        </mxCell>
        <mxCell id="g54i5lLIACG8u-Ve7HpA-127" value="&lt;font style=&quot;font-size: 24px;&quot;&gt;Undeploy SCI DEV iFlow&lt;/font&gt;" style="rounded=1;whiteSpace=wrap;html=1;fillColor=#f8cecc;strokeColor=#b85450;" vertex="1" parent="g54i5lLIACG8u-Ve7HpA-94">
          <mxGeometry x="-120" y="140" width="820" height="60" as="geometry" />
        </mxCell>
        <mxCell id="g54i5lLIACG8u-Ve7HpA-95" value="&lt;font style=&quot;font-size: 24px;&quot;&gt;Azure Queues Test&lt;br&gt;Datahub 2.0?&lt;/font&gt;" style="text;html=1;align=center;verticalAlign=middle;resizable=0;points=[];autosize=1;strokeColor=none;fillColor=none;" vertex="1" parent="WIyWlLk6GJQsqaUBKTNV-1">
          <mxGeometry x="-1555" y="175" width="230" height="70" as="geometry" />
        </mxCell>
        <mxCell id="g54i5lLIACG8u-Ve7HpA-96" value="" style="sketch=0;aspect=fixed;pointerEvents=1;shadow=0;dashed=0;html=1;strokeColor=none;labelPosition=center;verticalLabelPosition=bottom;verticalAlign=top;align=center;fillColor=#00188D;shape=mxgraph.azure.queue_generic" vertex="1" parent="WIyWlLk6GJQsqaUBKTNV-1">
          <mxGeometry x="-1523.25" y="640" width="200" height="60" as="geometry" />
        </mxCell>
        <mxCell id="g54i5lLIACG8u-Ve7HpA-97" value="" style="endArrow=classic;html=1;rounded=0;exitX=0.5;exitY=1;exitDx=0;exitDy=0;entryX=0.5;entryY=0;entryDx=0;entryDy=0;entryPerimeter=0;" edge="1" parent="WIyWlLk6GJQsqaUBKTNV-1" source="g54i5lLIACG8u-Ve7HpA-90" target="g54i5lLIACG8u-Ve7HpA-96">
          <mxGeometry width="50" height="50" relative="1" as="geometry">
            <mxPoint x="-1443.25" y="600" as="sourcePoint" />
            <mxPoint x="-1450" y="630" as="targetPoint" />
          </mxGeometry>
        </mxCell>
        <mxCell id="g54i5lLIACG8u-Ve7HpA-98" value="" style="endArrow=classic;html=1;rounded=0;exitX=0.5;exitY=1;exitDx=0;exitDy=0;entryX=0.271;entryY=0.111;entryDx=0;entryDy=0;entryPerimeter=0;" edge="1" parent="WIyWlLk6GJQsqaUBKTNV-1" source="g54i5lLIACG8u-Ve7HpA-91" target="g54i5lLIACG8u-Ve7HpA-96">
          <mxGeometry width="50" height="50" relative="1" as="geometry">
            <mxPoint x="-1460" y="540" as="sourcePoint" />
            <mxPoint x="-1410" y="490" as="targetPoint" />
          </mxGeometry>
        </mxCell>
        <mxCell id="g54i5lLIACG8u-Ve7HpA-99" value="" style="endArrow=classic;html=1;rounded=0;exitX=0.5;exitY=1;exitDx=0;exitDy=0;entryX=0.5;entryY=0;entryDx=0;entryDy=0;entryPerimeter=0;" edge="1" parent="WIyWlLk6GJQsqaUBKTNV-1" source="g54i5lLIACG8u-Ve7HpA-87" target="g54i5lLIACG8u-Ve7HpA-96">
          <mxGeometry width="50" height="50" relative="1" as="geometry">
            <mxPoint x="-1350" y="610" as="sourcePoint" />
            <mxPoint x="-1380" y="630" as="targetPoint" />
          </mxGeometry>
        </mxCell>
        <mxCell id="g54i5lLIACG8u-Ve7HpA-100" value="JMS QUEUE" style="text;html=1;align=center;verticalAlign=middle;whiteSpace=wrap;rounded=0;" vertex="1" parent="WIyWlLk6GJQsqaUBKTNV-1">
          <mxGeometry x="-1596.5" y="655" width="60" height="30" as="geometry" />
        </mxCell>
        <mxCell id="g54i5lLIACG8u-Ve7HpA-101" value="Handler service" style="ellipse;whiteSpace=wrap;html=1;" vertex="1" parent="WIyWlLk6GJQsqaUBKTNV-1">
          <mxGeometry x="-1490" y="740" width="120" height="80" as="geometry" />
        </mxCell>
        <mxCell id="g54i5lLIACG8u-Ve7HpA-102" value="" style="endArrow=classic;html=1;rounded=0;exitX=0.411;exitY=0.971;exitDx=0;exitDy=0;exitPerimeter=0;" edge="1" parent="WIyWlLk6GJQsqaUBKTNV-1" source="g54i5lLIACG8u-Ve7HpA-101">
          <mxGeometry width="50" height="50" relative="1" as="geometry">
            <mxPoint x="-1460" y="770" as="sourcePoint" />
            <mxPoint x="-1500" y="890" as="targetPoint" />
          </mxGeometry>
        </mxCell>
        <mxCell id="g54i5lLIACG8u-Ve7HpA-103" value="" style="endArrow=classic;html=1;rounded=0;exitX=0.722;exitY=0.988;exitDx=0;exitDy=0;exitPerimeter=0;" edge="1" parent="WIyWlLk6GJQsqaUBKTNV-1" source="g54i5lLIACG8u-Ve7HpA-101">
          <mxGeometry width="50" height="50" relative="1" as="geometry">
            <mxPoint x="-1350" y="940" as="sourcePoint" />
            <mxPoint x="-1370" y="910" as="targetPoint" />
          </mxGeometry>
        </mxCell>
        <mxCell id="g54i5lLIACG8u-Ve7HpA-104" value="" style="endArrow=classic;startArrow=classic;html=1;rounded=0;exitX=0.5;exitY=1;exitDx=0;exitDy=0;exitPerimeter=0;entryX=0.5;entryY=0;entryDx=0;entryDy=0;" edge="1" parent="WIyWlLk6GJQsqaUBKTNV-1" source="g54i5lLIACG8u-Ve7HpA-96" target="g54i5lLIACG8u-Ve7HpA-101">
          <mxGeometry width="50" height="50" relative="1" as="geometry">
            <mxPoint x="-1460" y="770" as="sourcePoint" />
            <mxPoint x="-1410" y="720" as="targetPoint" />
          </mxGeometry>
        </mxCell>
        <mxCell id="g54i5lLIACG8u-Ve7HpA-105" value="" style="endArrow=classic;html=1;rounded=0;exitX=0.5;exitY=1;exitDx=0;exitDy=0;" edge="1" parent="WIyWlLk6GJQsqaUBKTNV-1" source="g54i5lLIACG8u-Ve7HpA-101">
          <mxGeometry width="50" height="50" relative="1" as="geometry">
            <mxPoint x="-1430" y="820" as="sourcePoint" />
            <mxPoint x="-1430" y="950" as="targetPoint" />
          </mxGeometry>
        </mxCell>
        <mxCell id="g54i5lLIACG8u-Ve7HpA-106" value="Read" style="text;html=1;align=center;verticalAlign=middle;whiteSpace=wrap;rounded=0;" vertex="1" parent="WIyWlLk6GJQsqaUBKTNV-1">
          <mxGeometry x="-1570" y="600" width="240" height="30" as="geometry" />
        </mxCell>
        <mxCell id="g54i5lLIACG8u-Ve7HpA-107" value="Read" style="text;html=1;align=center;verticalAlign=middle;whiteSpace=wrap;rounded=0;" vertex="1" parent="WIyWlLk6GJQsqaUBKTNV-1">
          <mxGeometry x="-1556.5" y="710" width="240" height="30" as="geometry" />
        </mxCell>
        <mxCell id="g54i5lLIACG8u-Ve7HpA-108" value="Process Direct" style="text;html=1;align=center;verticalAlign=middle;whiteSpace=wrap;rounded=0;" vertex="1" parent="WIyWlLk6GJQsqaUBKTNV-1">
          <mxGeometry x="-1543.25" y="845" width="240" height="30" as="geometry" />
        </mxCell>
        <mxCell id="g54i5lLIACG8u-Ve7HpA-109" value="" style="ellipse;whiteSpace=wrap;html=1;" vertex="1" parent="WIyWlLk6GJQsqaUBKTNV-1">
          <mxGeometry x="-1586" y="930" width="120" height="80" as="geometry" />
        </mxCell>
        <mxCell id="g54i5lLIACG8u-Ve7HpA-110" value="" style="ellipse;whiteSpace=wrap;html=1;" vertex="1" parent="WIyWlLk6GJQsqaUBKTNV-1">
          <mxGeometry x="-1381" y="890" width="120" height="80" as="geometry" />
        </mxCell>
        <mxCell id="g54i5lLIACG8u-Ve7HpA-111" value="" style="ellipse;whiteSpace=wrap;html=1;" vertex="1" parent="WIyWlLk6GJQsqaUBKTNV-1">
          <mxGeometry x="-1423.25" y="910" width="120" height="80" as="geometry" />
        </mxCell>
        <mxCell id="g54i5lLIACG8u-Ve7HpA-112" value="" style="ellipse;whiteSpace=wrap;html=1;" vertex="1" parent="WIyWlLk6GJQsqaUBKTNV-1">
          <mxGeometry x="-1510" y="910" width="120" height="80" as="geometry" />
        </mxCell>
        <mxCell id="g54i5lLIACG8u-Ve7HpA-113" value="" style="ellipse;whiteSpace=wrap;html=1;" vertex="1" parent="WIyWlLk6GJQsqaUBKTNV-1">
          <mxGeometry x="-1586" y="890" width="120" height="80" as="geometry" />
        </mxCell>
        <mxCell id="g54i5lLIACG8u-Ve7HpA-114" value="" style="ellipse;whiteSpace=wrap;html=1;" vertex="1" parent="WIyWlLk6GJQsqaUBKTNV-1">
          <mxGeometry x="-1510" y="950" width="120" height="80" as="geometry" />
        </mxCell>
        <mxCell id="g54i5lLIACG8u-Ve7HpA-115" value="" style="ellipse;whiteSpace=wrap;html=1;" vertex="1" parent="WIyWlLk6GJQsqaUBKTNV-1">
          <mxGeometry x="-1413.25" y="960" width="120" height="80" as="geometry" />
        </mxCell>
        <mxCell id="g54i5lLIACG8u-Ve7HpA-116" value="" style="ellipse;whiteSpace=wrap;html=1;" vertex="1" parent="WIyWlLk6GJQsqaUBKTNV-1">
          <mxGeometry x="-1360" y="940" width="120" height="80" as="geometry" />
        </mxCell>
        <mxCell id="g54i5lLIACG8u-Ve7HpA-117" value="" style="endArrow=classic;html=1;rounded=0;" edge="1" parent="WIyWlLk6GJQsqaUBKTNV-1" source="g54i5lLIACG8u-Ve7HpA-115">
          <mxGeometry width="50" height="50" relative="1" as="geometry">
            <mxPoint x="-1370" y="1110" as="sourcePoint" />
            <mxPoint x="-1390" y="1130" as="targetPoint" />
          </mxGeometry>
        </mxCell>
        <mxCell id="g54i5lLIACG8u-Ve7HpA-118" value="" style="endArrow=classic;html=1;rounded=0;" edge="1" parent="WIyWlLk6GJQsqaUBKTNV-1" source="g54i5lLIACG8u-Ve7HpA-114">
          <mxGeometry width="50" height="50" relative="1" as="geometry">
            <mxPoint x="-1450" y="1080" as="sourcePoint" />
            <mxPoint x="-1410" y="1140" as="targetPoint" />
          </mxGeometry>
        </mxCell>
        <mxCell id="g54i5lLIACG8u-Ve7HpA-119" value="" style="endArrow=classic;html=1;rounded=0;exitX=0.361;exitY=1.004;exitDx=0;exitDy=0;exitPerimeter=0;" edge="1" parent="WIyWlLk6GJQsqaUBKTNV-1" source="g54i5lLIACG8u-Ve7HpA-109">
          <mxGeometry width="50" height="50" relative="1" as="geometry">
            <mxPoint x="-1540" y="1020" as="sourcePoint" />
            <mxPoint x="-1550" y="1120" as="targetPoint" />
          </mxGeometry>
        </mxCell>
        <mxCell id="g54i5lLIACG8u-Ve7HpA-120" value="" style="endArrow=classic;html=1;rounded=0;exitX=0.378;exitY=0.979;exitDx=0;exitDy=0;exitPerimeter=0;" edge="1" parent="WIyWlLk6GJQsqaUBKTNV-1" source="g54i5lLIACG8u-Ve7HpA-114">
          <mxGeometry width="50" height="50" relative="1" as="geometry">
            <mxPoint x="-1450" y="1080" as="sourcePoint" />
            <mxPoint x="-1470" y="1110" as="targetPoint" />
          </mxGeometry>
        </mxCell>
        <mxCell id="g54i5lLIACG8u-Ve7HpA-121" value="" style="endArrow=classic;html=1;rounded=0;exitX=0.66;exitY=0.946;exitDx=0;exitDy=0;exitPerimeter=0;" edge="1" parent="WIyWlLk6GJQsqaUBKTNV-1" source="g54i5lLIACG8u-Ve7HpA-115" target="g54i5lLIACG8u-Ve7HpA-122">
          <mxGeometry width="50" height="50" relative="1" as="geometry">
            <mxPoint x="-1450" y="1080" as="sourcePoint" />
            <mxPoint x="-1350" y="1140" as="targetPoint" />
          </mxGeometry>
        </mxCell>
        <mxCell id="g54i5lLIACG8u-Ve7HpA-122" value="" style="swimlane;startSize=0;" vertex="1" parent="WIyWlLk6GJQsqaUBKTNV-1">
          <mxGeometry x="-1560" y="1090" width="200" height="200" as="geometry" />
        </mxCell>
        <mxCell id="g54i5lLIACG8u-Ve7HpA-123" value="&lt;font style=&quot;font-size: 36px;&quot;&gt;SAP DS4&lt;br&gt;Client: 150&lt;/font&gt;" style="text;html=1;align=center;verticalAlign=middle;resizable=0;points=[];autosize=1;strokeColor=none;fillColor=none;" vertex="1" parent="g54i5lLIACG8u-Ve7HpA-122">
          <mxGeometry y="70" width="200" height="100" as="geometry" />
        </mxCell>
        <mxCell id="g54i5lLIACG8u-Ve7HpA-124" value="" style="swimlane;startSize=0;" vertex="1" parent="WIyWlLk6GJQsqaUBKTNV-1">
          <mxGeometry x="-1700" y="420" width="500" height="640" as="geometry" />
        </mxCell>
        <mxCell id="g54i5lLIACG8u-Ve7HpA-125" value="&lt;font style=&quot;font-size: 24px;&quot;&gt;SCI DEV&lt;/font&gt;" style="text;html=1;align=center;verticalAlign=middle;whiteSpace=wrap;rounded=0;" vertex="1" parent="g54i5lLIACG8u-Ve7HpA-124">
          <mxGeometry x="30" y="20" width="60" height="30" as="geometry" />
        </mxCell>
        <mxCell id="g54i5lLIACG8u-Ve7HpA-129" value="c" style="outlineConnect=0;dashed=0;verticalLabelPosition=bottom;verticalAlign=top;align=center;html=1;shape=mxgraph.aws3.queue;fillColor=#D9A741;gradientColor=none;" vertex="1" parent="WIyWlLk6GJQsqaUBKTNV-1">
          <mxGeometry x="-750" y="269" width="73.5" height="48" as="geometry" />
        </mxCell>
        <mxCell id="g54i5lLIACG8u-Ve7HpA-130" value="" style="outlineConnect=0;dashed=0;verticalLabelPosition=bottom;verticalAlign=top;align=center;html=1;shape=mxgraph.aws3.queue;fillColor=#D9A741;gradientColor=none;" vertex="1" parent="WIyWlLk6GJQsqaUBKTNV-1">
          <mxGeometry x="-640" y="269" width="73.5" height="48" as="geometry" />
        </mxCell>
        <mxCell id="g54i5lLIACG8u-Ve7HpA-131" value="" style="outlineConnect=0;dashed=0;verticalLabelPosition=bottom;verticalAlign=top;align=center;html=1;shape=mxgraph.aws3.queue;fillColor=#D9A741;gradientColor=none;" vertex="1" parent="WIyWlLk6GJQsqaUBKTNV-1">
          <mxGeometry x="-530" y="269" width="73.5" height="48" as="geometry" />
        </mxCell>
        <mxCell id="g54i5lLIACG8u-Ve7HpA-132" value="iFlow" style="ellipse;whiteSpace=wrap;html=1;" vertex="1" parent="WIyWlLk6GJQsqaUBKTNV-1">
          <mxGeometry x="-553.25" y="510" width="120" height="80" as="geometry" />
        </mxCell>
        <mxCell id="g54i5lLIACG8u-Ve7HpA-133" value="" style="endArrow=classic;html=1;rounded=0;" edge="1" parent="WIyWlLk6GJQsqaUBKTNV-1" source="g54i5lLIACG8u-Ve7HpA-129" target="g54i5lLIACG8u-Ve7HpA-136">
          <mxGeometry width="50" height="50" relative="1" as="geometry">
            <mxPoint x="-600" y="480" as="sourcePoint" />
            <mxPoint x="-520" y="540" as="targetPoint" />
          </mxGeometry>
        </mxCell>
        <mxCell id="g54i5lLIACG8u-Ve7HpA-134" value="" style="endArrow=classic;html=1;rounded=0;" edge="1" parent="WIyWlLk6GJQsqaUBKTNV-1" source="g54i5lLIACG8u-Ve7HpA-131" target="g54i5lLIACG8u-Ve7HpA-132">
          <mxGeometry width="50" height="50" relative="1" as="geometry">
            <mxPoint x="-530" y="460" as="sourcePoint" />
            <mxPoint x="-269" y="537" as="targetPoint" />
          </mxGeometry>
        </mxCell>
        <mxCell id="g54i5lLIACG8u-Ve7HpA-135" value="iFlow" style="ellipse;whiteSpace=wrap;html=1;" vertex="1" parent="WIyWlLk6GJQsqaUBKTNV-1">
          <mxGeometry x="-663.25" y="510" width="120" height="80" as="geometry" />
        </mxCell>
        <mxCell id="g54i5lLIACG8u-Ve7HpA-136" value="iFlow" style="ellipse;whiteSpace=wrap;html=1;" vertex="1" parent="WIyWlLk6GJQsqaUBKTNV-1">
          <mxGeometry x="-773.25" y="510" width="120" height="80" as="geometry" />
        </mxCell>
        <mxCell id="g54i5lLIACG8u-Ve7HpA-137" value="" style="endArrow=classic;html=1;rounded=0;" edge="1" parent="WIyWlLk6GJQsqaUBKTNV-1" source="g54i5lLIACG8u-Ve7HpA-130" target="g54i5lLIACG8u-Ve7HpA-135">
          <mxGeometry width="50" height="50" relative="1" as="geometry">
            <mxPoint x="-600" y="480" as="sourcePoint" />
            <mxPoint x="-550" y="430" as="targetPoint" />
          </mxGeometry>
        </mxCell>
        <mxCell id="g54i5lLIACG8u-Ve7HpA-138" value="" style="endArrow=none;html=1;rounded=0;" edge="1" parent="WIyWlLk6GJQsqaUBKTNV-1">
          <mxGeometry width="50" height="50" relative="1" as="geometry">
            <mxPoint x="-810" y="367" as="sourcePoint" />
            <mxPoint x="-420" y="367" as="targetPoint" />
          </mxGeometry>
        </mxCell>
        <mxCell id="g54i5lLIACG8u-Ve7HpA-139" value="" style="swimlane;startSize=0;" vertex="1" parent="WIyWlLk6GJQsqaUBKTNV-1">
          <mxGeometry x="-840" y="193" width="500" height="200" as="geometry" />
        </mxCell>
        <mxCell id="g54i5lLIACG8u-Ve7HpA-140" value="&lt;font style=&quot;font-size: 24px;&quot;&gt;Azure Queues Test&lt;br&gt;Datahub 2.0?&lt;/font&gt;" style="text;html=1;align=center;verticalAlign=middle;resizable=0;points=[];autosize=1;strokeColor=none;fillColor=none;" vertex="1" parent="WIyWlLk6GJQsqaUBKTNV-1">
          <mxGeometry x="-696" y="175" width="230" height="70" as="geometry" />
        </mxCell>
        <mxCell id="g54i5lLIACG8u-Ve7HpA-141" value="" style="sketch=0;aspect=fixed;pointerEvents=1;shadow=0;dashed=0;html=1;strokeColor=none;labelPosition=center;verticalLabelPosition=bottom;verticalAlign=top;align=center;fillColor=#00188D;shape=mxgraph.azure.queue_generic" vertex="1" parent="WIyWlLk6GJQsqaUBKTNV-1">
          <mxGeometry x="-663.25" y="640" width="200" height="60" as="geometry" />
        </mxCell>
        <mxCell id="g54i5lLIACG8u-Ve7HpA-142" value="" style="endArrow=classic;html=1;rounded=0;exitX=0.5;exitY=1;exitDx=0;exitDy=0;entryX=0.5;entryY=0;entryDx=0;entryDy=0;entryPerimeter=0;" edge="1" parent="WIyWlLk6GJQsqaUBKTNV-1" source="g54i5lLIACG8u-Ve7HpA-135" target="g54i5lLIACG8u-Ve7HpA-141">
          <mxGeometry width="50" height="50" relative="1" as="geometry">
            <mxPoint x="-583.25" y="600" as="sourcePoint" />
            <mxPoint x="-590" y="630" as="targetPoint" />
          </mxGeometry>
        </mxCell>
        <mxCell id="g54i5lLIACG8u-Ve7HpA-143" value="" style="endArrow=classic;html=1;rounded=0;exitX=0.5;exitY=1;exitDx=0;exitDy=0;entryX=0.271;entryY=0.111;entryDx=0;entryDy=0;entryPerimeter=0;" edge="1" parent="WIyWlLk6GJQsqaUBKTNV-1" source="g54i5lLIACG8u-Ve7HpA-136" target="g54i5lLIACG8u-Ve7HpA-141">
          <mxGeometry width="50" height="50" relative="1" as="geometry">
            <mxPoint x="-600" y="540" as="sourcePoint" />
            <mxPoint x="-550" y="490" as="targetPoint" />
          </mxGeometry>
        </mxCell>
        <mxCell id="g54i5lLIACG8u-Ve7HpA-144" value="" style="endArrow=classic;html=1;rounded=0;exitX=0.5;exitY=1;exitDx=0;exitDy=0;entryX=0.5;entryY=0;entryDx=0;entryDy=0;entryPerimeter=0;" edge="1" parent="WIyWlLk6GJQsqaUBKTNV-1" source="g54i5lLIACG8u-Ve7HpA-132" target="g54i5lLIACG8u-Ve7HpA-141">
          <mxGeometry width="50" height="50" relative="1" as="geometry">
            <mxPoint x="-490" y="610" as="sourcePoint" />
            <mxPoint x="-520" y="630" as="targetPoint" />
          </mxGeometry>
        </mxCell>
        <mxCell id="g54i5lLIACG8u-Ve7HpA-145" value="JMS QUEUE" style="text;html=1;align=center;verticalAlign=middle;whiteSpace=wrap;rounded=0;" vertex="1" parent="WIyWlLk6GJQsqaUBKTNV-1">
          <mxGeometry x="-736.5" y="655" width="60" height="30" as="geometry" />
        </mxCell>
        <mxCell id="g54i5lLIACG8u-Ve7HpA-146" value="Handler service" style="ellipse;whiteSpace=wrap;html=1;" vertex="1" parent="WIyWlLk6GJQsqaUBKTNV-1">
          <mxGeometry x="-630" y="740" width="120" height="80" as="geometry" />
        </mxCell>
        <mxCell id="g54i5lLIACG8u-Ve7HpA-147" value="" style="endArrow=classic;html=1;rounded=0;exitX=0.411;exitY=0.971;exitDx=0;exitDy=0;exitPerimeter=0;" edge="1" parent="WIyWlLk6GJQsqaUBKTNV-1" source="g54i5lLIACG8u-Ve7HpA-146">
          <mxGeometry width="50" height="50" relative="1" as="geometry">
            <mxPoint x="-600" y="770" as="sourcePoint" />
            <mxPoint x="-640" y="890" as="targetPoint" />
          </mxGeometry>
        </mxCell>
        <mxCell id="g54i5lLIACG8u-Ve7HpA-148" value="" style="endArrow=classic;html=1;rounded=0;exitX=0.722;exitY=0.988;exitDx=0;exitDy=0;exitPerimeter=0;" edge="1" parent="WIyWlLk6GJQsqaUBKTNV-1" source="g54i5lLIACG8u-Ve7HpA-146">
          <mxGeometry width="50" height="50" relative="1" as="geometry">
            <mxPoint x="-490" y="940" as="sourcePoint" />
            <mxPoint x="-510" y="910" as="targetPoint" />
          </mxGeometry>
        </mxCell>
        <mxCell id="g54i5lLIACG8u-Ve7HpA-149" value="" style="endArrow=classic;startArrow=classic;html=1;rounded=0;exitX=0.5;exitY=1;exitDx=0;exitDy=0;exitPerimeter=0;entryX=0.5;entryY=0;entryDx=0;entryDy=0;" edge="1" parent="WIyWlLk6GJQsqaUBKTNV-1" source="g54i5lLIACG8u-Ve7HpA-141" target="g54i5lLIACG8u-Ve7HpA-146">
          <mxGeometry width="50" height="50" relative="1" as="geometry">
            <mxPoint x="-600" y="770" as="sourcePoint" />
            <mxPoint x="-550" y="720" as="targetPoint" />
          </mxGeometry>
        </mxCell>
        <mxCell id="g54i5lLIACG8u-Ve7HpA-150" value="" style="endArrow=classic;html=1;rounded=0;exitX=0.5;exitY=1;exitDx=0;exitDy=0;" edge="1" parent="WIyWlLk6GJQsqaUBKTNV-1" source="g54i5lLIACG8u-Ve7HpA-146">
          <mxGeometry width="50" height="50" relative="1" as="geometry">
            <mxPoint x="-570" y="820" as="sourcePoint" />
            <mxPoint x="-570" y="950" as="targetPoint" />
          </mxGeometry>
        </mxCell>
        <mxCell id="g54i5lLIACG8u-Ve7HpA-151" value="Read" style="text;html=1;align=center;verticalAlign=middle;whiteSpace=wrap;rounded=0;" vertex="1" parent="WIyWlLk6GJQsqaUBKTNV-1">
          <mxGeometry x="-710" y="600" width="240" height="30" as="geometry" />
        </mxCell>
        <mxCell id="g54i5lLIACG8u-Ve7HpA-152" value="Read" style="text;html=1;align=center;verticalAlign=middle;whiteSpace=wrap;rounded=0;" vertex="1" parent="WIyWlLk6GJQsqaUBKTNV-1">
          <mxGeometry x="-696.5" y="710" width="240" height="30" as="geometry" />
        </mxCell>
        <mxCell id="g54i5lLIACG8u-Ve7HpA-153" value="Process Direct" style="text;html=1;align=center;verticalAlign=middle;whiteSpace=wrap;rounded=0;" vertex="1" parent="WIyWlLk6GJQsqaUBKTNV-1">
          <mxGeometry x="-683.25" y="845" width="240" height="30" as="geometry" />
        </mxCell>
        <mxCell id="g54i5lLIACG8u-Ve7HpA-154" value="" style="ellipse;whiteSpace=wrap;html=1;" vertex="1" parent="WIyWlLk6GJQsqaUBKTNV-1">
          <mxGeometry x="-726" y="930" width="120" height="80" as="geometry" />
        </mxCell>
        <mxCell id="g54i5lLIACG8u-Ve7HpA-155" value="" style="ellipse;whiteSpace=wrap;html=1;" vertex="1" parent="WIyWlLk6GJQsqaUBKTNV-1">
          <mxGeometry x="-521" y="890" width="120" height="80" as="geometry" />
        </mxCell>
        <mxCell id="g54i5lLIACG8u-Ve7HpA-156" value="" style="ellipse;whiteSpace=wrap;html=1;" vertex="1" parent="WIyWlLk6GJQsqaUBKTNV-1">
          <mxGeometry x="-563.25" y="910" width="120" height="80" as="geometry" />
        </mxCell>
        <mxCell id="g54i5lLIACG8u-Ve7HpA-157" value="" style="ellipse;whiteSpace=wrap;html=1;" vertex="1" parent="WIyWlLk6GJQsqaUBKTNV-1">
          <mxGeometry x="-650" y="910" width="120" height="80" as="geometry" />
        </mxCell>
        <mxCell id="g54i5lLIACG8u-Ve7HpA-158" value="" style="ellipse;whiteSpace=wrap;html=1;" vertex="1" parent="WIyWlLk6GJQsqaUBKTNV-1">
          <mxGeometry x="-726" y="890" width="120" height="80" as="geometry" />
        </mxCell>
        <mxCell id="g54i5lLIACG8u-Ve7HpA-159" value="" style="ellipse;whiteSpace=wrap;html=1;" vertex="1" parent="WIyWlLk6GJQsqaUBKTNV-1">
          <mxGeometry x="-650" y="950" width="120" height="80" as="geometry" />
        </mxCell>
        <mxCell id="g54i5lLIACG8u-Ve7HpA-160" value="" style="ellipse;whiteSpace=wrap;html=1;" vertex="1" parent="WIyWlLk6GJQsqaUBKTNV-1">
          <mxGeometry x="-553.25" y="960" width="120" height="80" as="geometry" />
        </mxCell>
        <mxCell id="g54i5lLIACG8u-Ve7HpA-161" value="" style="ellipse;whiteSpace=wrap;html=1;" vertex="1" parent="WIyWlLk6GJQsqaUBKTNV-1">
          <mxGeometry x="-500" y="940" width="120" height="80" as="geometry" />
        </mxCell>
        <mxCell id="g54i5lLIACG8u-Ve7HpA-162" value="" style="endArrow=classic;html=1;rounded=0;" edge="1" parent="WIyWlLk6GJQsqaUBKTNV-1" source="g54i5lLIACG8u-Ve7HpA-160">
          <mxGeometry width="50" height="50" relative="1" as="geometry">
            <mxPoint x="-510" y="1110" as="sourcePoint" />
            <mxPoint x="-530" y="1130" as="targetPoint" />
          </mxGeometry>
        </mxCell>
        <mxCell id="g54i5lLIACG8u-Ve7HpA-163" value="" style="endArrow=classic;html=1;rounded=0;" edge="1" parent="WIyWlLk6GJQsqaUBKTNV-1" source="g54i5lLIACG8u-Ve7HpA-159">
          <mxGeometry width="50" height="50" relative="1" as="geometry">
            <mxPoint x="-590" y="1080" as="sourcePoint" />
            <mxPoint x="-550" y="1140" as="targetPoint" />
          </mxGeometry>
        </mxCell>
        <mxCell id="g54i5lLIACG8u-Ve7HpA-164" value="" style="endArrow=classic;html=1;rounded=0;exitX=0.361;exitY=1.004;exitDx=0;exitDy=0;exitPerimeter=0;" edge="1" parent="WIyWlLk6GJQsqaUBKTNV-1" source="g54i5lLIACG8u-Ve7HpA-154">
          <mxGeometry width="50" height="50" relative="1" as="geometry">
            <mxPoint x="-680" y="1020" as="sourcePoint" />
            <mxPoint x="-690" y="1120" as="targetPoint" />
          </mxGeometry>
        </mxCell>
        <mxCell id="g54i5lLIACG8u-Ve7HpA-165" value="" style="endArrow=classic;html=1;rounded=0;exitX=0.378;exitY=0.979;exitDx=0;exitDy=0;exitPerimeter=0;" edge="1" parent="WIyWlLk6GJQsqaUBKTNV-1" source="g54i5lLIACG8u-Ve7HpA-159">
          <mxGeometry width="50" height="50" relative="1" as="geometry">
            <mxPoint x="-590" y="1080" as="sourcePoint" />
            <mxPoint x="-610" y="1110" as="targetPoint" />
          </mxGeometry>
        </mxCell>
        <mxCell id="g54i5lLIACG8u-Ve7HpA-166" value="" style="endArrow=classic;html=1;rounded=0;exitX=0.66;exitY=0.946;exitDx=0;exitDy=0;exitPerimeter=0;" edge="1" parent="WIyWlLk6GJQsqaUBKTNV-1" source="g54i5lLIACG8u-Ve7HpA-160" target="g54i5lLIACG8u-Ve7HpA-167">
          <mxGeometry width="50" height="50" relative="1" as="geometry">
            <mxPoint x="-590" y="1080" as="sourcePoint" />
            <mxPoint x="-490" y="1140" as="targetPoint" />
          </mxGeometry>
        </mxCell>
        <mxCell id="g54i5lLIACG8u-Ve7HpA-167" value="" style="swimlane;startSize=0;" vertex="1" parent="WIyWlLk6GJQsqaUBKTNV-1">
          <mxGeometry x="-700" y="1090" width="200" height="200" as="geometry" />
        </mxCell>
        <mxCell id="g54i5lLIACG8u-Ve7HpA-168" value="&lt;font style=&quot;font-size: 36px;&quot;&gt;SAP QS4&lt;br&gt;Client: 200&lt;/font&gt;" style="text;html=1;align=center;verticalAlign=middle;resizable=0;points=[];autosize=1;strokeColor=none;fillColor=none;" vertex="1" parent="g54i5lLIACG8u-Ve7HpA-167">
          <mxGeometry y="70" width="200" height="100" as="geometry" />
        </mxCell>
        <mxCell id="g54i5lLIACG8u-Ve7HpA-169" value="" style="swimlane;startSize=0;" vertex="1" parent="WIyWlLk6GJQsqaUBKTNV-1">
          <mxGeometry x="-840" y="420" width="500" height="640" as="geometry" />
        </mxCell>
        <mxCell id="g54i5lLIACG8u-Ve7HpA-170" value="&lt;font style=&quot;font-size: 24px;&quot;&gt;SCI QA&lt;/font&gt;" style="text;html=1;align=center;verticalAlign=middle;whiteSpace=wrap;rounded=0;" vertex="1" parent="g54i5lLIACG8u-Ve7HpA-169">
          <mxGeometry x="30" y="20" width="60" height="30" as="geometry" />
        </mxCell>
        <mxCell id="g54i5lLIACG8u-Ve7HpA-171" value="&lt;div&gt;&lt;br&gt;&lt;/div&gt;&lt;span style=&quot;font-size: 36px;&quot;&gt;SCI QA&lt;br&gt;Integration test&lt;/span&gt;" style="text;html=1;align=center;verticalAlign=middle;whiteSpace=wrap;rounded=0;" vertex="1" parent="WIyWlLk6GJQsqaUBKTNV-1">
          <mxGeometry x="260" y="58" width="190" height="90" as="geometry" />
        </mxCell>
        <mxCell id="g54i5lLIACG8u-Ve7HpA-172" value="&lt;br&gt;&lt;div&gt;&lt;span style=&quot;font-size: 36px;&quot;&gt;SCI QA Unit test&lt;/span&gt;&lt;/div&gt;" style="text;html=1;align=center;verticalAlign=middle;whiteSpace=wrap;rounded=0;" vertex="1" parent="WIyWlLk6GJQsqaUBKTNV-1">
          <mxGeometry x="-684.25" y="90" width="190" height="50" as="geometry" />
        </mxCell>
        <mxCell id="g54i5lLIACG8u-Ve7HpA-173" value="&lt;br&gt;&lt;div&gt;&lt;span style=&quot;font-size: 36px;&quot;&gt;SCI Dev&lt;/span&gt;&lt;/div&gt;" style="text;html=1;align=center;verticalAlign=middle;whiteSpace=wrap;rounded=0;" vertex="1" parent="WIyWlLk6GJQsqaUBKTNV-1">
          <mxGeometry x="-1550" y="80" width="190" height="30" as="geometry" />
        </mxCell>
        <mxCell id="g54i5lLIACG8u-Ve7HpA-217" value="c" style="outlineConnect=0;dashed=0;verticalLabelPosition=bottom;verticalAlign=top;align=center;html=1;shape=mxgraph.aws3.queue;fillColor=#D9A741;gradientColor=none;" vertex="1" parent="WIyWlLk6GJQsqaUBKTNV-1">
          <mxGeometry x="-2290" y="224" width="73.5" height="48" as="geometry" />
        </mxCell>
        <mxCell id="g54i5lLIACG8u-Ve7HpA-218" value="" style="outlineConnect=0;dashed=0;verticalLabelPosition=bottom;verticalAlign=top;align=center;html=1;shape=mxgraph.aws3.queue;fillColor=#D9A741;gradientColor=none;" vertex="1" parent="WIyWlLk6GJQsqaUBKTNV-1">
          <mxGeometry x="-2180" y="224" width="73.5" height="48" as="geometry" />
        </mxCell>
        <mxCell id="g54i5lLIACG8u-Ve7HpA-219" value="" style="outlineConnect=0;dashed=0;verticalLabelPosition=bottom;verticalAlign=top;align=center;html=1;shape=mxgraph.aws3.queue;fillColor=#D9A741;gradientColor=none;" vertex="1" parent="WIyWlLk6GJQsqaUBKTNV-1">
          <mxGeometry x="-2070" y="224" width="73.5" height="48" as="geometry" />
        </mxCell>
        <mxCell id="g54i5lLIACG8u-Ve7HpA-220" value="iFlow" style="ellipse;whiteSpace=wrap;html=1;" vertex="1" parent="WIyWlLk6GJQsqaUBKTNV-1">
          <mxGeometry x="-2093.25" y="465" width="120" height="80" as="geometry" />
        </mxCell>
        <mxCell id="g54i5lLIACG8u-Ve7HpA-221" value="" style="endArrow=classic;html=1;rounded=0;" edge="1" parent="WIyWlLk6GJQsqaUBKTNV-1" source="g54i5lLIACG8u-Ve7HpA-217" target="g54i5lLIACG8u-Ve7HpA-224">
          <mxGeometry width="50" height="50" relative="1" as="geometry">
            <mxPoint x="-2140" y="435" as="sourcePoint" />
            <mxPoint x="-2060" y="495" as="targetPoint" />
          </mxGeometry>
        </mxCell>
        <mxCell id="g54i5lLIACG8u-Ve7HpA-222" value="" style="endArrow=classic;html=1;rounded=0;" edge="1" parent="WIyWlLk6GJQsqaUBKTNV-1" source="g54i5lLIACG8u-Ve7HpA-219" target="g54i5lLIACG8u-Ve7HpA-220">
          <mxGeometry width="50" height="50" relative="1" as="geometry">
            <mxPoint x="-2070" y="415" as="sourcePoint" />
            <mxPoint x="-1809" y="492" as="targetPoint" />
          </mxGeometry>
        </mxCell>
        <mxCell id="g54i5lLIACG8u-Ve7HpA-223" value="iFlow" style="ellipse;whiteSpace=wrap;html=1;" vertex="1" parent="WIyWlLk6GJQsqaUBKTNV-1">
          <mxGeometry x="-2203.25" y="465" width="120" height="80" as="geometry" />
        </mxCell>
        <mxCell id="g54i5lLIACG8u-Ve7HpA-224" value="iFlow" style="ellipse;whiteSpace=wrap;html=1;" vertex="1" parent="WIyWlLk6GJQsqaUBKTNV-1">
          <mxGeometry x="-2313.25" y="465" width="120" height="80" as="geometry" />
        </mxCell>
        <mxCell id="g54i5lLIACG8u-Ve7HpA-225" value="" style="endArrow=classic;html=1;rounded=0;" edge="1" parent="WIyWlLk6GJQsqaUBKTNV-1" source="g54i5lLIACG8u-Ve7HpA-218" target="g54i5lLIACG8u-Ve7HpA-223">
          <mxGeometry width="50" height="50" relative="1" as="geometry">
            <mxPoint x="-2140" y="435" as="sourcePoint" />
            <mxPoint x="-2090" y="385" as="targetPoint" />
          </mxGeometry>
        </mxCell>
        <mxCell id="g54i5lLIACG8u-Ve7HpA-226" value="" style="endArrow=none;html=1;rounded=0;" edge="1" parent="WIyWlLk6GJQsqaUBKTNV-1">
          <mxGeometry width="50" height="50" relative="1" as="geometry">
            <mxPoint x="-2350" y="322" as="sourcePoint" />
            <mxPoint x="-1960" y="322" as="targetPoint" />
          </mxGeometry>
        </mxCell>
        <mxCell id="g54i5lLIACG8u-Ve7HpA-227" value="" style="swimlane;startSize=0;" vertex="1" parent="WIyWlLk6GJQsqaUBKTNV-1">
          <mxGeometry x="-2380" y="148" width="500" height="200" as="geometry" />
        </mxCell>
        <mxCell id="g54i5lLIACG8u-Ve7HpA-228" value="&lt;font style=&quot;font-size: 24px;&quot;&gt;Azure Queues Prod&lt;br&gt;Datahub 2.0?&lt;/font&gt;" style="text;html=1;align=center;verticalAlign=middle;resizable=0;points=[];autosize=1;strokeColor=none;fillColor=none;" vertex="1" parent="WIyWlLk6GJQsqaUBKTNV-1">
          <mxGeometry x="-2236" y="130" width="230" height="70" as="geometry" />
        </mxCell>
        <mxCell id="g54i5lLIACG8u-Ve7HpA-229" value="" style="sketch=0;aspect=fixed;pointerEvents=1;shadow=0;dashed=0;html=1;strokeColor=none;labelPosition=center;verticalLabelPosition=bottom;verticalAlign=top;align=center;fillColor=#00188D;shape=mxgraph.azure.queue_generic" vertex="1" parent="WIyWlLk6GJQsqaUBKTNV-1">
          <mxGeometry x="-2203.25" y="595" width="200" height="60" as="geometry" />
        </mxCell>
        <mxCell id="g54i5lLIACG8u-Ve7HpA-230" value="" style="endArrow=classic;html=1;rounded=0;exitX=0.5;exitY=1;exitDx=0;exitDy=0;entryX=0.5;entryY=0;entryDx=0;entryDy=0;entryPerimeter=0;" edge="1" parent="WIyWlLk6GJQsqaUBKTNV-1" source="g54i5lLIACG8u-Ve7HpA-223" target="g54i5lLIACG8u-Ve7HpA-229">
          <mxGeometry width="50" height="50" relative="1" as="geometry">
            <mxPoint x="-2123.25" y="555" as="sourcePoint" />
            <mxPoint x="-2130" y="585" as="targetPoint" />
          </mxGeometry>
        </mxCell>
        <mxCell id="g54i5lLIACG8u-Ve7HpA-231" value="" style="endArrow=classic;html=1;rounded=0;exitX=0.5;exitY=1;exitDx=0;exitDy=0;entryX=0.271;entryY=0.111;entryDx=0;entryDy=0;entryPerimeter=0;" edge="1" parent="WIyWlLk6GJQsqaUBKTNV-1" source="g54i5lLIACG8u-Ve7HpA-224" target="g54i5lLIACG8u-Ve7HpA-229">
          <mxGeometry width="50" height="50" relative="1" as="geometry">
            <mxPoint x="-2140" y="495" as="sourcePoint" />
            <mxPoint x="-2090" y="445" as="targetPoint" />
          </mxGeometry>
        </mxCell>
        <mxCell id="g54i5lLIACG8u-Ve7HpA-232" value="" style="endArrow=classic;html=1;rounded=0;exitX=0.5;exitY=1;exitDx=0;exitDy=0;entryX=0.5;entryY=0;entryDx=0;entryDy=0;entryPerimeter=0;" edge="1" parent="WIyWlLk6GJQsqaUBKTNV-1" source="g54i5lLIACG8u-Ve7HpA-220" target="g54i5lLIACG8u-Ve7HpA-229">
          <mxGeometry width="50" height="50" relative="1" as="geometry">
            <mxPoint x="-2030" y="565" as="sourcePoint" />
            <mxPoint x="-2060" y="585" as="targetPoint" />
          </mxGeometry>
        </mxCell>
        <mxCell id="g54i5lLIACG8u-Ve7HpA-233" value="JMS QUEUE" style="text;html=1;align=center;verticalAlign=middle;whiteSpace=wrap;rounded=0;" vertex="1" parent="WIyWlLk6GJQsqaUBKTNV-1">
          <mxGeometry x="-2276.5" y="610" width="60" height="30" as="geometry" />
        </mxCell>
        <mxCell id="g54i5lLIACG8u-Ve7HpA-234" value="Handler service" style="ellipse;whiteSpace=wrap;html=1;" vertex="1" parent="WIyWlLk6GJQsqaUBKTNV-1">
          <mxGeometry x="-2170" y="695" width="120" height="80" as="geometry" />
        </mxCell>
        <mxCell id="g54i5lLIACG8u-Ve7HpA-235" value="" style="endArrow=classic;html=1;rounded=0;exitX=0.411;exitY=0.971;exitDx=0;exitDy=0;exitPerimeter=0;" edge="1" parent="WIyWlLk6GJQsqaUBKTNV-1" source="g54i5lLIACG8u-Ve7HpA-234">
          <mxGeometry width="50" height="50" relative="1" as="geometry">
            <mxPoint x="-2140" y="725" as="sourcePoint" />
            <mxPoint x="-2180" y="845" as="targetPoint" />
          </mxGeometry>
        </mxCell>
        <mxCell id="g54i5lLIACG8u-Ve7HpA-236" value="" style="endArrow=classic;html=1;rounded=0;exitX=0.722;exitY=0.988;exitDx=0;exitDy=0;exitPerimeter=0;" edge="1" parent="WIyWlLk6GJQsqaUBKTNV-1" source="g54i5lLIACG8u-Ve7HpA-234">
          <mxGeometry width="50" height="50" relative="1" as="geometry">
            <mxPoint x="-2030" y="895" as="sourcePoint" />
            <mxPoint x="-2050" y="865" as="targetPoint" />
          </mxGeometry>
        </mxCell>
        <mxCell id="g54i5lLIACG8u-Ve7HpA-237" value="" style="endArrow=classic;startArrow=classic;html=1;rounded=0;exitX=0.5;exitY=1;exitDx=0;exitDy=0;exitPerimeter=0;entryX=0.5;entryY=0;entryDx=0;entryDy=0;" edge="1" parent="WIyWlLk6GJQsqaUBKTNV-1" source="g54i5lLIACG8u-Ve7HpA-229" target="g54i5lLIACG8u-Ve7HpA-234">
          <mxGeometry width="50" height="50" relative="1" as="geometry">
            <mxPoint x="-2140" y="725" as="sourcePoint" />
            <mxPoint x="-2090" y="675" as="targetPoint" />
          </mxGeometry>
        </mxCell>
        <mxCell id="g54i5lLIACG8u-Ve7HpA-238" value="" style="endArrow=classic;html=1;rounded=0;exitX=0.5;exitY=1;exitDx=0;exitDy=0;" edge="1" parent="WIyWlLk6GJQsqaUBKTNV-1" source="g54i5lLIACG8u-Ve7HpA-234">
          <mxGeometry width="50" height="50" relative="1" as="geometry">
            <mxPoint x="-2110" y="775" as="sourcePoint" />
            <mxPoint x="-2110" y="905" as="targetPoint" />
          </mxGeometry>
        </mxCell>
        <mxCell id="g54i5lLIACG8u-Ve7HpA-239" value="Read" style="text;html=1;align=center;verticalAlign=middle;whiteSpace=wrap;rounded=0;" vertex="1" parent="WIyWlLk6GJQsqaUBKTNV-1">
          <mxGeometry x="-2250" y="555" width="240" height="30" as="geometry" />
        </mxCell>
        <mxCell id="g54i5lLIACG8u-Ve7HpA-240" value="Read" style="text;html=1;align=center;verticalAlign=middle;whiteSpace=wrap;rounded=0;" vertex="1" parent="WIyWlLk6GJQsqaUBKTNV-1">
          <mxGeometry x="-2236.5" y="665" width="240" height="30" as="geometry" />
        </mxCell>
        <mxCell id="g54i5lLIACG8u-Ve7HpA-241" value="Process Direct" style="text;html=1;align=center;verticalAlign=middle;whiteSpace=wrap;rounded=0;" vertex="1" parent="WIyWlLk6GJQsqaUBKTNV-1">
          <mxGeometry x="-2223.25" y="800" width="240" height="30" as="geometry" />
        </mxCell>
        <mxCell id="g54i5lLIACG8u-Ve7HpA-242" value="" style="ellipse;whiteSpace=wrap;html=1;" vertex="1" parent="WIyWlLk6GJQsqaUBKTNV-1">
          <mxGeometry x="-2266" y="885" width="120" height="80" as="geometry" />
        </mxCell>
        <mxCell id="g54i5lLIACG8u-Ve7HpA-243" value="" style="ellipse;whiteSpace=wrap;html=1;" vertex="1" parent="WIyWlLk6GJQsqaUBKTNV-1">
          <mxGeometry x="-2061" y="845" width="120" height="80" as="geometry" />
        </mxCell>
        <mxCell id="g54i5lLIACG8u-Ve7HpA-244" value="" style="ellipse;whiteSpace=wrap;html=1;" vertex="1" parent="WIyWlLk6GJQsqaUBKTNV-1">
          <mxGeometry x="-2103.25" y="865" width="120" height="80" as="geometry" />
        </mxCell>
        <mxCell id="g54i5lLIACG8u-Ve7HpA-245" value="" style="ellipse;whiteSpace=wrap;html=1;" vertex="1" parent="WIyWlLk6GJQsqaUBKTNV-1">
          <mxGeometry x="-2190" y="865" width="120" height="80" as="geometry" />
        </mxCell>
        <mxCell id="g54i5lLIACG8u-Ve7HpA-246" value="" style="ellipse;whiteSpace=wrap;html=1;" vertex="1" parent="WIyWlLk6GJQsqaUBKTNV-1">
          <mxGeometry x="-2266" y="845" width="120" height="80" as="geometry" />
        </mxCell>
        <mxCell id="g54i5lLIACG8u-Ve7HpA-247" value="" style="ellipse;whiteSpace=wrap;html=1;" vertex="1" parent="WIyWlLk6GJQsqaUBKTNV-1">
          <mxGeometry x="-2190" y="905" width="120" height="80" as="geometry" />
        </mxCell>
        <mxCell id="g54i5lLIACG8u-Ve7HpA-248" value="" style="ellipse;whiteSpace=wrap;html=1;" vertex="1" parent="WIyWlLk6GJQsqaUBKTNV-1">
          <mxGeometry x="-2093.25" y="915" width="120" height="80" as="geometry" />
        </mxCell>
        <mxCell id="g54i5lLIACG8u-Ve7HpA-249" value="" style="ellipse;whiteSpace=wrap;html=1;" vertex="1" parent="WIyWlLk6GJQsqaUBKTNV-1">
          <mxGeometry x="-2040" y="895" width="120" height="80" as="geometry" />
        </mxCell>
        <mxCell id="g54i5lLIACG8u-Ve7HpA-250" value="" style="endArrow=classic;html=1;rounded=0;" edge="1" parent="WIyWlLk6GJQsqaUBKTNV-1" source="g54i5lLIACG8u-Ve7HpA-248">
          <mxGeometry width="50" height="50" relative="1" as="geometry">
            <mxPoint x="-2050" y="1065" as="sourcePoint" />
            <mxPoint x="-2070" y="1085" as="targetPoint" />
          </mxGeometry>
        </mxCell>
        <mxCell id="g54i5lLIACG8u-Ve7HpA-251" value="" style="endArrow=classic;html=1;rounded=0;" edge="1" parent="WIyWlLk6GJQsqaUBKTNV-1" source="g54i5lLIACG8u-Ve7HpA-247">
          <mxGeometry width="50" height="50" relative="1" as="geometry">
            <mxPoint x="-2130" y="1035" as="sourcePoint" />
            <mxPoint x="-2090" y="1095" as="targetPoint" />
          </mxGeometry>
        </mxCell>
        <mxCell id="g54i5lLIACG8u-Ve7HpA-252" value="" style="endArrow=classic;html=1;rounded=0;exitX=0.361;exitY=1.004;exitDx=0;exitDy=0;exitPerimeter=0;" edge="1" parent="WIyWlLk6GJQsqaUBKTNV-1" source="g54i5lLIACG8u-Ve7HpA-242">
          <mxGeometry width="50" height="50" relative="1" as="geometry">
            <mxPoint x="-2220" y="975" as="sourcePoint" />
            <mxPoint x="-2230" y="1075" as="targetPoint" />
          </mxGeometry>
        </mxCell>
        <mxCell id="g54i5lLIACG8u-Ve7HpA-253" value="" style="endArrow=classic;html=1;rounded=0;exitX=0.378;exitY=0.979;exitDx=0;exitDy=0;exitPerimeter=0;" edge="1" parent="WIyWlLk6GJQsqaUBKTNV-1" source="g54i5lLIACG8u-Ve7HpA-247">
          <mxGeometry width="50" height="50" relative="1" as="geometry">
            <mxPoint x="-2130" y="1035" as="sourcePoint" />
            <mxPoint x="-2150" y="1065" as="targetPoint" />
          </mxGeometry>
        </mxCell>
        <mxCell id="g54i5lLIACG8u-Ve7HpA-254" value="" style="endArrow=classic;html=1;rounded=0;exitX=0.66;exitY=0.946;exitDx=0;exitDy=0;exitPerimeter=0;" edge="1" parent="WIyWlLk6GJQsqaUBKTNV-1" source="g54i5lLIACG8u-Ve7HpA-248" target="g54i5lLIACG8u-Ve7HpA-255">
          <mxGeometry width="50" height="50" relative="1" as="geometry">
            <mxPoint x="-2130" y="1035" as="sourcePoint" />
            <mxPoint x="-2030" y="1095" as="targetPoint" />
          </mxGeometry>
        </mxCell>
        <mxCell id="g54i5lLIACG8u-Ve7HpA-255" value="" style="swimlane;startSize=0;" vertex="1" parent="WIyWlLk6GJQsqaUBKTNV-1">
          <mxGeometry x="-2240" y="1045" width="200" height="200" as="geometry" />
        </mxCell>
        <mxCell id="g54i5lLIACG8u-Ve7HpA-256" value="&lt;font style=&quot;font-size: 36px;&quot;&gt;SAP PS4&lt;br&gt;Client: 400&lt;/font&gt;" style="text;html=1;align=center;verticalAlign=middle;resizable=0;points=[];autosize=1;strokeColor=none;fillColor=none;" vertex="1" parent="g54i5lLIACG8u-Ve7HpA-255">
          <mxGeometry y="70" width="200" height="100" as="geometry" />
        </mxCell>
        <mxCell id="g54i5lLIACG8u-Ve7HpA-257" value="" style="swimlane;startSize=0;" vertex="1" parent="WIyWlLk6GJQsqaUBKTNV-1">
          <mxGeometry x="-2380" y="375" width="500" height="640" as="geometry" />
        </mxCell>
        <mxCell id="g54i5lLIACG8u-Ve7HpA-258" value="&lt;font style=&quot;font-size: 24px;&quot;&gt;SCI QA&lt;/font&gt;" style="text;html=1;align=center;verticalAlign=middle;whiteSpace=wrap;rounded=0;" vertex="1" parent="g54i5lLIACG8u-Ve7HpA-257">
          <mxGeometry x="30" y="20" width="60" height="30" as="geometry" />
        </mxCell>
        <mxCell id="g54i5lLIACG8u-Ve7HpA-259" value="&lt;div&gt;&lt;span style=&quot;font-size: 36px;&quot;&gt;SCI Prod&lt;/span&gt;&lt;/div&gt;" style="text;html=1;align=center;verticalAlign=middle;whiteSpace=wrap;rounded=0;" vertex="1" parent="WIyWlLk6GJQsqaUBKTNV-1">
          <mxGeometry x="-2224.25" y="44" width="190" height="30" as="geometry" />
        </mxCell>
      </root>
    </mxGraphModel>
  </diagram>
</mxfile>
